<svg width="384" height="172" viewBox="0 0 384 172" fill="none" xmlns="http://www.w3.org/2000/svg">
<path d="M18.5 65H52.5V86.5L18.5 130V65Z" fill="#047857"/>
<path d="M66 32.5H100V121L96.5 124L66 97.5V32.5Z" fill="#047857"/>
<path d="M114 0H148V72.5L114 106.5V0Z" fill="#047857"/>
<path d="M201.5 46L190.5 94L182 83.5L96.5 156.5L54.5 112L0 172L54.5 101L96.5 138.5L167.5 68L159 58.5L201.5 46Z" fill="#222222"/>
<path d="M201.784 157L220.792 132.376L203.08 109.336H209.92L224.032 128.056L238.216 109.336H245.056L227.344 132.376L246.352 157H239.512L224.032 136.552L208.624 157H201.784ZM253.74 157V125.752H246.396V121H253.74V108.112H259.14V121H267.42V125.752H259.14V157H253.74ZM288.257 157.576C284.609 157.576 281.441 156.76 278.753 155.128C276.065 153.448 274.001 151.192 272.561 148.36C271.121 145.528 270.401 142.408 270.401 139C270.401 135.544 271.121 132.424 272.561 129.64C274.001 126.808 276.065 124.576 278.753 122.944C281.441 121.264 284.609 120.424 288.257 120.424C291.953 120.424 295.121 121.264 297.761 122.944C300.449 124.576 302.513 126.808 303.953 129.64C305.393 132.424 306.113 135.544 306.113 139C306.113 142.408 305.393 145.528 303.953 148.36C302.513 151.192 300.449 153.448 297.761 155.128C295.121 156.76 291.953 157.576 288.257 157.576ZM288.257 152.68C290.945 152.68 293.201 152.056 295.025 150.808C296.897 149.56 298.313 147.904 299.273 145.84C300.233 143.728 300.713 141.448 300.713 139C300.713 136.504 300.233 134.224 299.273 132.16C298.313 130.096 296.897 128.44 295.025 127.192C293.201 125.944 290.945 125.32 288.257 125.32C285.617 125.32 283.361 125.944 281.489 127.192C279.617 128.44 278.201 130.096 277.241 132.16C276.281 134.224 275.801 136.504 275.801 139C275.801 141.448 276.281 143.728 277.241 145.84C278.201 147.904 279.617 149.56 281.489 150.808C283.361 152.056 285.617 152.68 288.257 152.68ZM328.754 157.576C325.154 157.576 322.034 156.76 319.394 155.128C316.754 153.448 314.69 151.192 313.202 148.36C311.762 145.528 311.042 142.408 311.042 139C311.042 135.544 311.762 132.424 313.202 129.64C314.69 126.808 316.754 124.576 319.394 122.944C322.034 121.264 325.154 120.424 328.754 120.424C333.026 120.424 336.65 121.528 339.626 123.736C342.65 125.944 344.69 128.8 345.746 132.304H339.914C339.098 130.24 337.778 128.56 335.954 127.264C334.178 125.968 332.018 125.32 329.474 125.32C326.834 125.32 324.53 125.944 322.562 127.192C320.594 128.44 319.082 130.096 318.026 132.16C316.97 134.224 316.442 136.504 316.442 139C316.442 141.448 316.97 143.728 318.026 145.84C319.082 147.904 320.594 149.56 322.562 150.808C324.53 152.056 326.834 152.68 329.474 152.68C332.018 152.68 334.178 152.032 335.954 150.736C337.778 149.44 339.098 147.76 339.914 145.696H345.746C344.69 149.2 342.65 152.056 339.626 154.264C336.65 156.472 333.026 157.576 328.754 157.576ZM352.438 157V106.6H357.838V138.856L375.19 121H382.75L368.278 135.184L383.83 157H377.206L364.606 138.928L357.838 145.624V157H352.438Z" fill="#2C2C2C"/>
</svg>
